<svg height="653.44451" viewBox="0 0 937.59653 653.44451" width="937.59653" xmlns="http://www.w3.org/2000/svg"><path d="m195.992 26.994 4.096 337.919 176.99 86.213-4.096-337.918z" fill="#f2f2f2"/><path d="m142.208 0-132.251 271.502 179.446 87.411-4.096-337.919z" fill="#f2f2f2"/><path d="m937.597 381.414-357.194-173.992 4.096 337.918 220.846 107.576z" fill="#f2f2f2"/><path d="m388.982 113.208 4.096 337.918 176.991 86.214-4.096-337.918z" fill="#f2f2f2"/><g transform="translate(-131.20174 -123.27775)"><path d="m581.70174 506.22225-5 112s13 106 10 109-11 9-5 16 28 12 29 8 3-118 3-118l7-135z" fill="#2f2e41"/><path d="m581.70174 506.22225-5 112s13 106 10 109-11 9-5 16 28 12 29 8 3-118 3-118l7-135z" opacity=".2"/><path d="m586.70174 741.22225s-25 19-28 19-30 9-11 13 65 2 66-4-3-24.20866-3-24.20866z" fill="#2f2e41"/><path d="m586.70174 741.22225s-25 19-28 19-30 9-11 13 65 2 66-4-3-24.20866-3-24.20866z" opacity=".2"/><path d="m524.70174 422.22225s-11 4-11 7-10 41-12 43-3 11-3 11-10 23-8 23 19-4 20 0 9-25 9-25l17-34z" fill="#6c63ff"/><path d="m490.70174 510.22225s3 22 11 24 0-28 0-28z" fill="#ffb8b8"/><path d="m516.70174 410.22225s6 13 9 20 31-18 31-18-15-11-15-16-25 14-25 14z" fill="#ffb8b8"/><path d="m228.2409 735.27771c6.70634 24.79066 29.67708 40.14415 29.67708 40.14415s12.0976-24.84013 5.39126-49.6308-29.67707-40.14414-29.67707-40.14414-12.09761 24.84008-5.39127 49.63079z" fill="#3f3d56"/><path d="m238.0954 729.94993c18.40229 17.91389 20.65 45.45172 20.65 45.45172s-27.58831-1.50634-45.99061-19.42023-20.65-45.45172-20.65-45.45172 27.58831 1.5063 45.99061 19.42023z" fill="#6c63ff"/><path d="m466.70174 776.22225a91 91 0 1 1 91-91 91.10284 91.10284 0 0 1 -91 91zm0-180a89 89 0 1 0 89 89 89.10056 89.10056 0 0 0 -89-89z" fill="#2f2e41"/><path d="m746.70174 776.22225a91 91 0 1 1 91-91 91.10284 91.10284 0 0 1 -91 91zm0-180a89 89 0 1 0 89 89 89.10025 89.10025 0 0 0 -89-89z" fill="#2f2e41"/></g><circle cx="335.5" cy="561.94451" fill="#2f2e41" r="6"/><circle cx="617.5" cy="561.94451" fill="#2f2e41" r="6"/><path d="m344.42 553.337-1.84-.785 52.265-122.621 148.21 3.024.287.45 73 114-1.684 1.079-72.713-113.55-145.79-2.976z" fill="#2f2e41"/><path d="m500.125 576.128 38.413-135.456 1.924.545-37.587 132.544 100.499-12.809.252 1.985z" fill="#2f2e41"/><path d="m572.2018 563.17975h1.99988v147.08501h-1.99988z" fill="#2f2e41" transform="matrix(.71387284 -.70027536 .70027536 .71387284 -413.07405 460.30478)"/><path d="m666.29998 542.22229h22.80351v1.99993h-22.80351z" fill="#2f2e41" transform="matrix(.26270419 -.96487642 .96487642 .26270419 -155.67744 931.13616)"/><path d="m398.476 424.166-1.952-.443 4.723-20.778h-16.747v-13h2v11h17.253z" fill="#2f2e41"/><path d="m643.70174 512.22225s0-6 13-3 53 11 56 10 2 6-11 9-28-4-31-6-27-10-27-10z" fill="#2f2e41" transform="translate(-131.20174 -123.27775)"/><path d="m450.5 567.94451h26v10h-26z" fill="#6c63ff"/><path d="m632.70174 718.22225a20 20 0 1 1 20-20 20.02229 20.02229 0 0 1 -20 20zm0-38a18 18 0 1 0 18 18 18.02094 18.02094 0 0 0 -18-18z" fill="#2f2e41" transform="translate(-131.20174 -123.27775)"/><circle cx="394.5" cy="272.94451" fill="#ffb8b8" r="24"/><path d="m601.70174 508.22225s-69 40-68 53 53 84 53 84 4 21 8 21 29 9 30 3-8-13-7-17-44-77-44-77 96.30708-36 76.15354-67-48.15354 0-48.15354 0z" fill="#2f2e41" transform="translate(-131.20174 -123.27775)"/><path d="m603.70174 662.22225s-12 3-14 7-37 17-27 20 68 4 70 2 0-25.2126-8-25.1063-17 3.1063-21-3.8937z" fill="#2f2e41" transform="translate(-131.20174 -123.27775)"/><path d="m525.70174 433.22225 22.5-27.5s25.5-7.5 36.5 7.5 41 52 51 60 24 39 19 40-33-11-44-3-32 9-33 5-61-71-61-80 6.39359-10.93113 6.39359-10.93113z" fill="#6c63ff" transform="translate(-131.20174 -123.27775)"/><rect fill="#2f2e41" height="6" rx="3" transform="matrix(.94281207 .33332477 -.33332477 .94281207 68.70297 -267.99528)" width="38" x="502.70174" y="507.22225"/><path d="m469.70174 500.22225s-35 10-32 21 35-13 35-13z" fill="#ffb8b8" transform="translate(-131.20174 -123.27775)"/><path d="m560.70174 413.22225s-14 12-17 26-18 39-18 39l-61 20s-4 19 2 19 73-14 75-17 45-60 45-60 4-31-26-27z" fill="#6c63ff" transform="translate(-131.20174 -123.27775)"/><path d="m510.79531 368.44381a4.73339 4.73339 0 0 1 -2.06116 1.03435 1.47087 1.47087 0 0 1 -1.70452-1.1807 6.11136 6.11136 0 0 1 -2.33876 2.99963c-1.1451.59683-2.91578.09638-3.08083-1.18434a5.40475 5.40475 0 0 1 -1.244 2.62583 1.8631 1.8631 0 0 1 -2.61916.08755c.50148 2.74053.192 5.55888.34944 8.34046s.89921 5.73046 3.00075 7.55954c3.06485 2.66751 7.67364 2.00916 11.7052 1.50379a3.55294 3.55294 0 0 1 1.83433.10034c1.50955.64313 1.44107 2.7445 1.46142 4.38521a12.18456 12.18456 0 0 0 10.66923 11.57068 6.10787 6.10787 0 0 0 4.53952-1.1079c1.14466-.97023 1.72935-2.55159 3.041-3.28043 2.13359-1.18558 4.72122.54346 6.28115 2.4208s3.09735 4.18665 5.5139 4.53031c3.196.4545 5.63028-2.80262 6.82457-5.80177a33.82171 33.82171 0 0 0 -.67217-26.2798c-6.67336-14.54697-29.46986-16.84785-41.49991-8.32355z" fill="#2f2e41" transform="translate(-131.20174 -123.27775)"/><path d="m933.09041 776.18124-1.77735-.918c23.082-44.624 10.73926-102.5752-3.67871-143.332a439.29051 439.29051 0 0 0 -37.27783-78.67481l1.69043-1.06836a441.53687 441.53687 0 0 1 37.47217 79.0752c14.55078 41.12988 26.98047 99.65918 3.57129 144.91797z" fill="#2f2e41" transform="translate(-131.20174 -123.27775)"/><path d="m908.61157 587.22257h72.18033v1.99936h-72.18033z" fill="#2f2e41" transform="matrix(.17975 -.98371 .98371 .17975 65.05255 1288.53009)"/><path d="m895.70138 600.54655h2.00072v98.35141h-2.00072z" fill="#2f2e41" transform="matrix(.73207129 -.68122803 .68122803 .73207129 -333.5586 661.65986)"/><path d="m939.19743 715.2221h58.00862v2.00031h-58.00862z" fill="#2f2e41" transform="matrix(.58584701 -.81042167 .81042167 .58584701 -310.66012 957.99953)"/><circle cx="825" cy="400.44451" fill="#6c63ff" r="10"/><circle cx="716" cy="477.44451" fill="#3f3d56" r="10"/><circle cx="760" cy="487.44451" fill="#3f3d56" r="10"/><circle cx="740" cy="526.44451" fill="#6c63ff" r="10"/><circle cx="865" cy="551.44451" fill="#3f3d56" r="10"/><circle cx="832" cy="562.44451" fill="#3f3d56" r="10"/><circle cx="855" cy="594.44451" fill="#3f3d56" r="10"/><circle cx="750" cy="412.44451" fill="#3f3d56" r="10"/><path d="m0 651.44451h903v2h-903z" fill="#2f2e41"/><path d="m170.20174 536.5846h98v98h-98z" fill="#f2f2f2" transform="matrix(.8660254 .5 -.5 .8660254 190.95803 -154.42515)"/><path d="m239.20174 669.5846a22 22 0 1 1 22-22 22.02489 22.02489 0 0 1 -22 22zm0-42a20 20 0 1 0 20 20 20.02229 20.02229 0 0 0 -20-20z" fill="#3f3d56" transform="translate(-131.20174 -123.27775)"/></svg>